<?xml version="1.0" standalone="no"?>
<!DOCTYPE svg PUBLIC "-//W3C//DTD SVG 20010904//EN"
 "http://www.w3.org/TR/2001/REC-SVG-20010904/DTD/svg10.dtd">
<svg version="1.0" xmlns="http://www.w3.org/2000/svg"
 width="1100.000000pt" height="400.000000pt" viewBox="0 0 1100.000000 400.000000"
 preserveAspectRatio="xMidYMid meet">

<g transform="translate(0.000000,400.000000) scale(0.100000,-0.100000)"
fill="#000000" stroke="none">
<path d="M1650 3985 c0 -8 5 -15 10 -15 6 0 10 -7 10 -15 0 -8 -4 -15 -8 -15
-4 0 -8 -25 -9 -56 -1 -32 -7 -60 -13 -64 -6 -4 -14 -26 -17 -49 -5 -35 -9
-41 -29 -41 -15 0 -24 -6 -24 -15 0 -8 -7 -15 -15 -15 -10 0 -15 -10 -15 -30
0 -32 -16 -41 -23 -12 -3 9 -5 -2 -6 -26 -2 -66 -25 -112 -55 -112 -22 0 -26
-5 -26 -30 0 -20 -5 -30 -15 -30 -8 0 -29 -13 -47 -28 -18 -16 -60 -41 -93
-57 -33 -15 -62 -31 -65 -35 -3 -4 -27 -15 -53 -25 -26 -10 -51 -24 -55 -32
-9 -15 -94 -49 -157 -63 -68 -14 -113 -29 -190 -61 -16 -7 -34 -13 -40 -14 -5
0 -23 -7 -40 -14 -16 -7 -42 -14 -58 -16 -15 -1 -30 -5 -34 -9 -3 -3 -19 -6
-34 -6 -15 0 -31 -5 -34 -10 -4 -6 -10 -8 -15 -5 -4 3 -21 -2 -36 -10 -16 -8
-46 -15 -67 -15 -21 0 -47 -4 -57 -10 -10 -5 -51 -12 -92 -15 -40 -3 -112 -11
-160 -17 l-88 -11 0 -1503 0 -1504 5500 0 5500 0 0 2000 0 2000 -4675 0
c-4149 0 -4675 -2 -4675 -15z m4002 -512 c13 -16 42 -59 62 -98 68 -125 181
-248 381 -414 108 -90 132 -112 85 -80 -61 41 -262 215 -338 291 -74 74 -202
231 -202 247 0 12 -29 18 -52 13 -10 -2 -36 -32 -59 -66 -23 -33 -58 -79 -78
-101 -21 -22 -53 -61 -73 -86 -78 -99 -421 -429 -446 -429 -12 0 -57 -49 -50
-55 2 -3 14 4 26 15 12 11 25 20 29 19 21 -3 33 2 33 15 0 14 37 33 46 23 9
-8 -60 -67 -73 -63 -7 3 -13 -2 -13 -10 0 -9 -11 -30 -25 -46 -36 -42 -23 -47
24 -10 50 40 58 40 31 2 -12 -17 -25 -28 -30 -25 -4 3 -13 -2 -20 -10 -7 -8
-16 -12 -21 -9 -5 3 -28 -14 -53 -38 -24 -24 -59 -57 -78 -73 -20 -17 -38 -41
-42 -53 -4 -12 -12 -23 -17 -23 -5 -1 -13 -2 -17 -3 -17 -2 -86 -66 -72 -66 9
0 23 -9 32 -19 16 -19 15 -20 -33 -18 -28 0 -52 4 -55 9 -20 31 -106 -43 -131
-113 l-12 -34 24 28 c13 15 25 27 27 27 2 0 3 -16 4 -35 0 -20 6 -41 12 -47
15 -15 42 -2 42 19 -1 17 -2 16 -15 -1 -11 -15 -15 -16 -15 -5 0 8 7 24 15 35
13 16 16 17 25 4 14 -22 12 -35 -10 -55 -11 -10 -20 -23 -20 -29 0 -6 5 -5 12
2 19 19 30 14 18 -8 -10 -18 -8 -20 18 -20 15 0 32 -4 38 -10 6 -6 19 -5 37 5
34 18 35 6 0 -19 -25 -18 -28 -18 -54 -4 -28 16 -74 14 -63 -3 3 -5 -3 -6 -12
-2 -14 5 -16 2 -11 -15 3 -13 0 -28 -6 -35 -16 -17 -19 -37 -6 -37 5 0 7 -5 4
-10 -5 -8 -11 -8 -20 0 -11 9 -12 6 -8 -12 5 -23 5 -23 -10 -3 -11 14 -12 24
-5 32 8 10 6 13 -7 13 -10 0 -14 5 -11 13 3 6 9 20 12 30 4 9 11 17 16 17 6 0
8 7 4 15 -3 8 -2 15 2 15 4 0 8 9 8 20 0 24 1 23 -30 9 -26 -12 -36 -35 -36
-84 0 -17 -5 -36 -11 -42 -16 -16 2 -58 42 -101 31 -33 52 -45 28 -16 -12 15
-11 16 7 10 18 -5 21 -3 19 16 -4 34 13 71 27 62 7 -4 4 3 -7 16 l-20 23 22
-7 c14 -4 25 -2 30 7 12 21 39 27 73 17 17 -5 28 -5 25 0 -3 4 7 13 22 18 l28
10 -25 2 c-23 1 -23 2 -5 10 65 27 76 29 93 16 9 -7 16 -6 22 3 5 10 9 10 14
2 5 -8 14 -4 27 11 14 17 17 18 13 6 -4 -12 -1 -18 9 -18 20 0 31 17 15 23 -7
2 2 11 20 21 17 9 32 21 32 26 0 15 -8 12 -30 -10 -24 -24 -36 -25 -44 -4 -4
10 -2 13 6 8 8 -5 9 -1 4 12 -9 22 -9 23 -7 49 1 11 8 29 16 40 15 19 15 19
30 -1 18 -27 125 -35 125 -9 0 8 4 15 10 15 5 0 9 -10 7 -22 -1 -14 4 -23 12
-23 8 0 16 -6 19 -12 2 -9 -7 -13 -29 -13 -26 0 -30 -3 -21 -12 18 -18 14 -31
-8 -25 -11 3 -20 2 -20 -3 0 -4 -19 -11 -42 -16 -23 -5 -43 -16 -45 -24 -4
-12 -3 -13 5 -1 6 8 19 12 30 9 10 -3 27 -1 36 4 21 12 65 0 45 -13 -11 -6
-10 -12 6 -26 25 -23 57 -23 82 -1 10 9 37 20 61 24 23 3 47 13 53 20 6 8 15
11 20 8 17 -10 9 -22 -21 -29 -16 -4 -30 -11 -30 -16 0 -5 12 -7 28 -3 55 12
56 12 37 40 -13 20 -14 28 -4 40 10 12 9 16 -9 21 -26 6 -19 23 9 23 10 0 19
-7 19 -15 0 -8 8 -15 18 -15 10 0 13 3 6 8 -6 4 -13 15 -17 24 -4 10 -14 16
-26 13 -14 -2 -21 3 -26 22 -9 39 -1 38 43 -6 41 -42 69 -50 90 -29 25 25 24
-4 -1 -30 -33 -35 -34 -42 -2 -42 14 0 25 -5 25 -11 0 -6 7 -9 15 -6 8 4 17 1
21 -4 4 -7 10 -7 16 -1 16 16 1 59 -24 65 -18 5 -19 9 -9 21 16 19 6 36 -20
36 -20 0 -20 0 -1 28 20 27 20 28 1 51 -16 19 -18 34 -14 78 3 35 1 52 -5 48
-6 -4 -8 -10 -6 -13 2 -4 -4 -19 -15 -32 l-20 -25 6 35 c6 29 5 33 -6 23 -20
-19 -29 -16 -29 11 0 19 -6 25 -27 28 -22 2 -28 8 -26 26 2 12 -2 22 -7 22 -6
0 -10 -6 -10 -12 0 -7 -10 -29 -22 -48 -12 -19 -21 -44 -19 -55 2 -21 -32 -65
-50 -65 -5 0 -17 -16 -26 -35 -17 -36 -43 -54 -43 -30 0 8 3 15 8 15 12 0 8
54 -5 68 -7 7 -13 20 -13 27 0 8 -5 17 -12 21 -7 5 -9 2 -4 -7 4 -8 0 -5 -8 5
-18 22 -21 46 -6 46 5 0 7 -8 4 -17 -2 -10 4 0 15 23 10 22 31 51 47 63 26 20
47 70 24 56 -16 -10 -11 7 6 19 17 13 9 50 -10 39 -6 -4 -5 1 3 10 8 10 21 15
30 12 10 -3 26 2 37 10 10 8 14 15 7 15 -6 0 -15 -4 -18 -10 -3 -5 -11 -10
-16 -10 -10 0 19 50 35 62 6 4 7 10 4 14 -4 3 -31 -13 -60 -37 -48 -40 -50
-41 -25 -11 28 35 36 58 15 46 -7 -4 -10 -4 -6 0 3 4 8 6 10 5 1 -2 22 16 46
39 24 23 48 39 54 36 7 -4 8 -2 4 4 -4 7 -3 12 3 12 5 0 12 -6 14 -12 3 -7 6
-1 6 15 1 27 1 27 -27 13 -16 -8 -34 -22 -41 -30 -7 -9 -17 -13 -23 -10 -5 3
-4 12 3 20 6 8 8 14 3 14 -5 0 -1 7 9 14 10 8 18 17 17 20 0 4 9 16 20 28 18
20 20 20 20 4 0 -16 2 -16 15 -6 12 10 13 15 4 20 -7 5 0 14 20 26 17 10 31
24 31 32 0 9 5 10 19 2 13 -6 22 -7 26 0 3 5 25 14 48 20 23 6 58 15 77 21 24
7 50 7 85 -1 28 -6 58 -11 69 -11 18 0 18 0 0 -14 -25 -19 -34 -18 -55 1 -16
14 -21 14 -65 -8 -34 -17 -48 -30 -49 -46 -1 -13 4 -22 12 -22 8 0 13 6 12 13
-3 28 2 38 28 48 15 5 39 7 53 4 24 -6 24 -7 6 -21 -11 -8 -15 -14 -9 -14 7 0
15 4 18 10 3 5 16 8 28 6 12 -2 31 5 42 14 18 16 23 17 45 5 l25 -14 -25 -1
-25 0 29 -15 c22 -12 32 -12 42 -4 10 8 14 8 14 0 0 -6 -4 -11 -9 -11 -5 0
-12 -7 -15 -16 -4 -11 -2 -15 7 -11 9 3 12 -6 11 -31 0 -20 5 -43 13 -50 17
-18 17 -32 -1 -32 -11 0 -14 -12 -13 -45 2 -39 5 -45 24 -45 23 0 27 -18 8
-32 -5 -4 -6 -10 -2 -14 3 -4 15 -1 24 7 17 12 17 12 2 -5 -14 -15 -19 -16
-38 -4 -20 12 -25 10 -47 -17 -13 -16 -29 -30 -35 -30 -7 0 -15 -7 -19 -15
-18 -36 -29 -67 -35 -97 -8 -40 -21 -50 -30 -24 -4 13 -12 18 -21 14 -8 -3
-21 3 -30 13 -10 14 -13 15 -9 3 8 -21 59 -58 77 -55 8 1 23 9 32 19 16 16 20
16 48 1 l30 -16 -16 23 c-25 36 -20 52 29 103 25 25 42 46 38 46 -5 0 6 9 22
20 17 11 35 18 42 16 6 -3 14 0 17 7 3 7 5 6 5 -3 1 -9 -8 -23 -19 -33 -24
-21 -25 -40 -3 -58 13 -11 17 -11 20 -1 3 6 9 12 15 12 6 0 5 -6 -2 -15 -9
-11 -27 -14 -68 -10 -77 6 -105 -23 -65 -67 18 -20 38 -25 27 -7 -5 9 1 10 21
5 22 -6 26 -4 22 8 -5 13 -2 13 18 4 14 -6 25 -15 25 -20 0 -5 -5 -6 -11 -2
-8 4 -8 0 0 -15 10 -18 9 -21 -8 -21 -11 0 -23 -5 -26 -10 -4 -7 6 -9 29 -7
20 2 36 0 36 -4 0 -5 -6 -9 -12 -9 -7 -1 -4 -6 8 -13 27 -15 21 -41 -6 -27
-13 7 -20 6 -24 -6 -4 -11 1 -18 14 -21 29 -8 25 -26 -5 -21 -13 3 -22 1 -19
-3 3 -5 17 -9 32 -9 16 0 32 -8 40 -20 15 -25 4 -26 -15 -2 -14 16 -14 16 -9
0 3 -11 0 -18 -9 -19 -31 -3 -35 -4 -37 -14 -1 -5 10 -16 25 -23 15 -7 27 -18
27 -24 0 -5 7 -8 15 -4 8 3 15 2 15 -2 0 -4 17 -9 38 -10 20 0 30 2 22 6 -19
9 -19 37 0 56 13 12 20 11 50 -2 31 -13 33 -15 15 -23 -11 -4 -14 -8 -7 -8 6
-1 12 -13 12 -27 0 -14 -4 -23 -9 -19 -14 8 -24 -13 -23 -46 1 -26 -6 -33 -61
-60 -34 -17 -71 -39 -82 -49 -11 -10 -30 -21 -42 -24 -11 -4 -27 -14 -35 -23
-11 -14 -11 -16 2 -8 8 4 5 -2 -7 -14 -12 -11 -28 -21 -35 -20 -10 0 -10 2 0
6 6 2 12 9 12 14 0 4 -6 7 -12 5 -7 -1 -10 -1 -5 1 4 3 7 8 7 13 0 4 16 24 35
43 38 38 50 73 13 41 -19 -17 -21 -17 -15 -1 4 9 2 17 -4 17 -7 0 -9 10 -5 26
l7 27 -32 -28 c-29 -24 -34 -25 -45 -11 -14 20 -28 21 -21 2 7 -17 -15 -38
-34 -33 -8 2 -10 2 -6 -1 10 -5 -34 -38 -46 -34 -4 1 -12 -9 -17 -22 -8 -21
-70 -54 -92 -48 -4 1 -28 -7 -53 -18 -26 -11 -60 -20 -76 -20 -16 0 -29 -4
-29 -9 0 -13 -36 -23 -87 -26 -34 -1 -40 1 -32 12 14 16 -7 18 -45 3 -17 -6
-26 -6 -26 1 0 5 -13 3 -29 -5 -16 -9 -39 -13 -52 -11 -51 10 -85 17 -104 21
-16 4 -17 3 -5 -5 12 -9 11 -11 -8 -11 -12 0 -21 3 -21 8 3 20 -2 32 -15 32
-8 0 -22 7 -31 16 -17 18 -45 12 -45 -9 0 -8 7 -20 15 -27 18 -15 20 -34 3
-25 -7 4 -4 -1 6 -9 11 -9 16 -16 12 -16 -5 0 -3 -6 3 -14 17 -20 0 -27 -38
-16 -28 8 -31 7 -20 -6 6 -8 9 -17 5 -21 -3 -4 -13 2 -21 13 -12 17 -12 20 2
32 15 11 15 12 -3 13 -14 0 -15 2 -4 6 25 10 44 34 33 41 -6 4 -9 20 -6 35 4
21 13 29 34 34 16 3 29 9 29 13 0 8 -40 22 -71 25 -9 1 -21 5 -28 9 -6 4 -11
1 -11 -8 0 -17 -25 -22 -34 -8 -7 12 -66 9 -67 -3 0 -5 5 -11 12 -14 6 -2 9 1
5 7 -10 17 50 -4 72 -25 11 -10 20 -31 20 -47 0 -15 6 -32 13 -37 10 -6 7 -9
-12 -9 -33 0 -41 8 -29 31 8 14 6 21 -12 30 -13 7 -34 13 -48 14 -14 1 -31 5
-38 9 -6 4 -22 2 -34 -4 -21 -10 -22 -10 -4 4 18 14 15 36 -5 36 -6 0 -7 -5
-3 -12 5 -8 2 -9 -9 -5 -10 3 -17 2 -17 -3 0 -6 -6 -10 -14 -10 -7 0 -19 -6
-25 -14 -10 -11 -8 -16 9 -21 11 -3 18 -10 15 -14 -2 -5 7 -8 21 -8 24 0 24 0
7 17 -10 9 -24 15 -30 12 -7 -2 -13 1 -13 7 0 16 25 13 40 -4 15 -18 36 -19
44 -2 3 6 3 2 1 -10 -4 -14 1 -26 15 -36 16 -11 18 -16 8 -20 -10 -5 -9 -9 5
-17 9 -6 15 -15 12 -21 -4 -5 1 -9 10 -9 11 0 15 -5 12 -14 -3 -8 -1 -16 4
-18 6 -2 12 -12 14 -23 2 -11 4 -22 5 -25 0 -3 6 3 14 12 11 15 14 14 30 -13
9 -16 22 -29 28 -29 7 0 6 6 -2 15 -10 12 -10 15 4 15 9 0 16 -5 16 -10 0 -7
24 -9 65 -5 39 3 65 1 65 -5 0 -13 57 -13 65 0 16 26 205 -1 205 -29 0 -10 53
-32 84 -36 11 -1 22 -7 24 -13 2 -7 13 -12 25 -13 12 0 16 -3 10 -6 -20 -7
-15 -19 12 -31 31 -14 46 -15 25 -2 -12 8 -11 10 7 10 12 0 24 4 27 9 6 10 88
-7 96 -20 5 -7 116 -29 148 -29 7 0 10 5 7 10 -4 6 -10 8 -14 6 -4 -3 -13 -1
-21 5 -11 6 -6 9 17 9 31 0 32 1 23 26 -11 28 1 54 25 54 6 0 22 9 35 20 13
11 27 20 32 20 4 0 8 6 8 14 0 21 21 31 31 15 7 -11 9 -10 9 4 0 9 5 17 11 17
5 0 9 -10 7 -22 -3 -20 3 -24 39 -29 67 -9 63 -19 -8 -20 -115 -1 -160 -17
-151 -53 7 -30 22 -47 36 -39 6 4 6 0 -2 -9 -10 -13 -9 -17 10 -22 30 -8 73
-8 65 0 -8 8 13 28 38 37 16 6 15 3 -5 -13 -21 -16 -22 -20 -7 -20 10 0 15 -4
12 -10 -9 -15 32 -12 65 5 17 9 30 11 30 5 0 -5 -7 -10 -16 -10 -30 0 -7 -25
26 -28 24 -3 31 0 27 10 -3 8 2 14 12 14 16 0 15 -3 -3 -31 l-20 -30 -118 -1
c-73 -1 -118 2 -118 8 0 6 -12 3 -26 -7 -15 -9 -23 -12 -20 -6 7 11 -1 12
-159 15 -56 1 -70 4 -69 16 1 18 -39 25 -63 12 -21 -12 43 -59 108 -78 28 -9
49 -17 47 -19 -1 -2 -36 3 -76 11 -56 11 -80 20 -102 43 -22 22 -46 32 -97 41
-42 8 -94 28 -136 51 -38 22 -73 39 -78 39 -12 0 -12 -17 1 -25 14 -9 12 -46
-2 -44 -26 3 -39 -1 -33 -11 3 -6 -1 -10 -9 -10 -35 0 -13 -15 26 -18 22 -1
46 -6 52 -10 16 -10 50 -2 59 14 6 10 13 11 26 4 10 -5 22 -6 26 -2 5 4 5 1 1
-5 -6 -12 5 -18 27 -14 4 0 7 -3 7 -9 0 -5 -4 -10 -9 -10 -5 0 -18 -3 -28 -6
-13 -4 -14 -3 -5 3 10 8 10 13 -4 24 -14 11 -18 11 -29 -4 -6 -9 -16 -13 -20
-9 -5 4 -5 1 -1 -5 4 -7 13 -13 21 -13 15 0 28 -27 16 -34 -16 -10 -167 -8
-194 3 -16 6 -41 11 -56 11 -16 0 -34 7 -41 15 -7 8 -25 15 -40 15 -15 0 -33
6 -39 14 -7 8 -21 14 -31 13 -18 -1 -18 -3 -3 -19 8 -9 20 -16 27 -15 6 1 11
-5 11 -13 0 -8 5 -21 10 -29 5 -9 -8 -5 -31 9 l-39 23 24 -26 c13 -14 49 -36
80 -48 31 -12 79 -37 106 -55 38 -25 71 -36 140 -48 50 -8 122 -24 160 -35
l70 -21 -55 7 c-30 3 -81 7 -113 9 -32 1 -64 8 -73 14 -17 15 -26 10 -15 -8
15 -24 225 -53 311 -42 8 1 29 -1 46 -3 17 -3 76 -8 131 -12 84 -6 101 -5 106
8 7 19 -37 27 -148 27 -55 0 -75 3 -65 10 8 5 27 10 42 10 15 0 33 8 40 19 12
17 54 32 101 36 10 1 22 6 25 12 4 6 21 18 39 27 17 9 38 24 45 34 15 21 45
42 34 23 -6 -9 0 -10 21 -5 15 4 25 3 21 -1 -4 -4 0 -14 9 -20 15 -11 13 -13
-15 -20 -18 -3 -32 -11 -32 -16 0 -18 56 -8 83 16 32 28 33 32 10 38 -10 2 0
4 21 4 l40 1 -25 -19 c-26 -20 -26 -21 13 -23 15 -1 30 4 32 11 8 19 24 16 22
-4 0 -10 -12 -24 -26 -31 -14 -7 -17 -10 -7 -7 10 3 25 5 33 5 8 0 14 7 14 15
0 8 2 15 4 15 2 0 12 3 21 6 10 4 15 2 13 -6 -2 -7 3 -15 10 -17 8 -3 10 1 6
11 -5 12 1 16 27 18 112 6 179 17 179 29 0 5 8 9 18 9 15 0 15 -2 2 -11 -12
-8 -10 -9 8 -4 13 4 34 8 45 10 12 1 42 8 67 14 57 13 91 14 71 2 -11 -7 -10
-10 5 -13 15 -4 12 -7 -11 -13 -16 -4 -37 -13 -45 -20 -20 -16 -77 -35 -109
-36 -23 0 -24 -1 -6 -8 16 -7 10 -11 -34 -25 -37 -11 -58 -13 -65 -6 -14 14
-26 12 -26 -5 0 -11 -5 -12 -26 -5 -36 14 -54 12 -48 -4 4 -11 -11 -16 -69
-21 -42 -4 -79 -5 -84 -2 -4 3 -14 -1 -21 -9 -7 -8 -8 -14 -2 -14 5 0 9 -5 8
-11 -5 -20 49 -28 124 -18 91 11 100 5 14 -10 -205 -36 -519 -45 -721 -22
-348 41 -635 135 -852 280 -246 165 -367 375 -334 581 24 150 143 307 336 443
55 39 147 109 205 157 58 47 181 144 274 215 93 71 207 164 254 207 102 93
213 231 271 336 72 128 103 148 153 95z m98 -614 c0 -5 -4 -9 -10 -9 -5 0 -10
7 -10 16 0 8 5 12 10 9 6 -3 10 -10 10 -16z m530 -45 c0 -3 -13 4 -30 16 -16
12 -30 24 -30 26 0 3 14 -4 30 -16 17 -12 30 -24 30 -26z m-1157 21 c-3 -9 -8
-14 -10 -11 -3 3 -2 9 2 15 9 16 15 13 8 -4z m723 -237 c4 -7 4 -10 -1 -6 -4
4 -15 2 -24 -5 -14 -11 -14 -10 -2 6 16 20 18 21 27 5z m-186 -53 c-7 -8 -17
-15 -23 -15 -6 0 -2 7 9 15 25 19 30 19 14 0z m293 -34 c17 -12 18 -15 3 -23
-10 -6 -24 -5 -38 3 -52 26 -79 67 -38 56 11 -3 23 0 26 5 4 6 11 3 17 -8 6
-11 19 -25 30 -33z m-88 9 c3 -5 2 -10 -4 -10 -5 0 -13 5 -16 10 -3 6 -2 10 4
10 5 0 13 -4 16 -10z m-908 -15 c-4 -8 -2 -17 2 -20 13 -7 1 -43 -18 -58 -33
-25 -67 -82 -70 -120 -1 -5 -6 -5 -12 -2 -11 7 -40 -25 -33 -37 5 -7 -64 -58
-79 -58 -5 0 17 26 48 58 70 70 89 105 75 131 -7 14 -6 21 3 24 9 4 9 6 0 6
-17 1 -36 -36 -22 -41 16 -5 -30 -34 -68 -42 -22 -5 -35 -3 -45 7 -11 13 -15
13 -32 -1 -16 -15 -16 -13 3 21 11 21 21 44 21 52 0 8 9 19 19 25 26 13 31 13
25 -4 -8 -22 42 -8 69 20 13 13 41 30 63 38 52 18 57 19 51 1z m889 -65 c0
-11 -4 -20 -8 -20 -10 0 -11 24 -1 33 9 9 9 10 9 -13z m-1146 -139 c0 -8 -10
-3 -25 13 -32 34 -32 42 0 19 13 -10 25 -24 25 -32z m1201 6 c-10 -9 -11 -8
-5 6 3 10 9 15 12 12 3 -3 0 -11 -7 -18z m-2692 -6 c9 -6 10 -11 2 -15 -6 -4
-15 -5 -20 -2 -4 3 -21 2 -37 -3 -19 -5 -38 -3 -53 5 -24 12 -23 13 20 17 24
2 51 4 59 5 8 1 21 -2 29 -7z m1801 -30 c-5 -11 -15 -23 -21 -27 -6 -3 -3 5 6
20 20 30 30 35 15 7z m-1328 -12 c29 -6 61 -19 70 -28 27 -26 43 -38 58 -44
10 -4 8 -6 -6 -6 -12 -1 -33 -10 -47 -21 -14 -11 -30 -20 -36 -20 -6 0 -11 -4
-11 -10 0 -5 -6 -10 -13 -10 -7 0 -18 -9 -25 -20 -7 -12 -16 -18 -21 -16 -4 3
-13 -6 -19 -19 -7 -14 -20 -25 -31 -25 -10 0 -24 -7 -31 -15 -9 -10 -9 -15 -1
-15 6 0 11 -4 11 -10 0 -5 -13 -7 -30 -3 -25 4 -30 2 -31 -13 -2 -38 3 -79 11
-89 12 -15 -40 -75 -65 -75 -11 -1 -31 -7 -45 -15 -24 -14 -23 -14 25 -15 l50
-1 -24 -19 c-13 -11 -32 -20 -42 -20 -11 0 -31 -7 -44 -16 -24 -15 -45 -12
-45 7 0 5 8 9 17 9 14 0 14 3 -4 20 -22 20 -73 38 -73 25 0 -4 14 -48 31 -98
42 -123 48 -194 20 -242 -13 -22 -21 -53 -21 -79 0 -46 -34 -96 -64 -96 -13 0
-12 -7 3 -52 l18 -53 54 3 c30 2 106 9 169 17 63 8 148 15 190 15 41 0 111 7
155 16 75 15 347 25 358 14 3 -3 7 -21 9 -40 2 -28 0 -35 -14 -34 -10 1 -18
-2 -18 -8 0 -5 -5 -6 -11 -2 -6 3 -24 -3 -40 -15 -15 -11 -33 -21 -39 -21 -6
0 -9 -4 -6 -9 3 -5 -1 -14 -9 -21 -19 -15 -12 -45 19 -80 12 -14 31 -39 43
-56 l22 -32 -31 -13 c-17 -7 -53 -30 -80 -51 l-49 -39 -67 22 c-46 15 -67 18
-70 10 -11 -32 -141 11 -154 51 -4 11 -10 10 -31 -1 -16 -8 -36 -11 -54 -7
l-28 8 27 -29 c15 -15 30 -41 34 -58 4 -16 12 -33 18 -37 18 -12 80 -8 99 6
17 13 17 14 0 21 -15 6 -14 9 9 15 28 8 83 6 160 -5 l47 -7 -34 -45 c-18 -24
-35 -49 -37 -55 -3 -7 -16 -5 -37 6 -47 25 -53 17 -29 -34 12 -25 22 -47 23
-50 0 -3 4 -15 9 -28 5 -15 2 -27 -8 -38 -9 -8 -20 -24 -26 -34 -13 -24 -68
-33 -146 -25 -54 6 -64 10 -64 26 0 14 -8 19 -27 20 -38 2 -76 5 -88 9 -5 1
-14 3 -20 4 -30 5 -55 19 -60 36 -4 12 -12 17 -22 13 -11 -4 -14 -2 -11 8 3 8
-4 22 -14 31 -16 14 -17 18 -5 25 8 4 17 19 19 33 2 18 12 28 38 37 19 7 31
12 27 12 -23 2 -256 -43 -282 -53 -25 -11 -33 -11 -43 0 -16 17 -15 24 3 24 8
0 15 5 15 11 0 8 -12 10 -34 6 -45 -7 -51 1 -24 31 l23 25 -22 -12 c-19 -10
-22 -9 -17 4 4 9 15 20 25 25 10 6 16 17 13 24 -4 10 16 28 58 55 81 51 120
91 107 107 -5 7 -12 35 -16 63 -3 28 -7 51 -9 51 -2 0 -36 -15 -76 -33 -99
-46 -129 -56 -158 -56 -14 0 -83 -9 -155 -21 -71 -12 -164 -23 -205 -25 -41
-3 -90 -6 -107 -8 -22 -3 -38 2 -49 15 -10 10 -14 18 -9 18 4 0 14 -8 21 -17
7 -10 14 -13 14 -7 0 6 -6 17 -13 23 -17 14 -15 54 4 59 11 3 11 1 -1 -7 -11
-8 -11 -11 -2 -11 15 0 112 101 131 138 8 15 20 31 27 35 16 9 58 87 51 94 -3
2 -22 4 -43 3 -117 -4 -144 -2 -172 11 -40 17 -40 26 -1 58 30 26 32 36 28
116 0 11 5 40 11 65 7 25 13 50 14 56 1 7 7 18 14 26 11 14 6 58 -8 58 -4 0
-2 17 5 38 8 21 9 38 4 40 -17 6 -9 31 11 37 11 4 44 30 73 59 32 33 81 68
127 91 41 20 98 54 125 75 99 75 292 159 440 192 43 10 136 20 237 26 15 1 51
-3 80 -9z m882 -24 c-25 -19 -40 -19 -24 0 7 8 20 15 28 15 13 0 12 -3 -4 -15z
m61 -15 c3 -5 -3 -10 -14 -10 -12 0 -21 5 -21 10 0 6 6 10 14 10 8 0 18 -4 21
-10z m692 4 c-3 -3 -12 -4 -19 -1 -8 3 -5 6 6 6 11 1 17 -2 13 -5z m773 -25
c0 -5 -7 -9 -15 -9 -15 0 -20 12 -9 23 8 8 24 -1 24 -14z m752 -18 c19 -16 24
-31 10 -31 -5 0 -19 14 -31 31 -23 31 -15 31 21 0z m-2207 9 c3 -5 1 -10 -4
-10 -6 0 -11 5 -11 10 0 6 2 10 4 10 3 0 8 -4 11 -10z m422 -32 c-3 -8 -6 -5
-6 6 -1 11 2 17 5 13 3 -3 4 -12 1 -19z m-457 -8 c0 -5 -5 -10 -11 -10 -5 0
-7 5 -4 10 3 6 8 10 11 10 2 0 4 -4 4 -10z m150 0 c0 -5 -5 -10 -11 -10 -5 0
-7 5 -4 10 3 6 8 10 11 10 2 0 4 -4 4 -10z m1318 -32 c-18 -28 -31 -53 -49
-93 -7 -16 -15 -34 -18 -39 -2 -5 8 -6 23 -2 15 4 32 3 39 -1 16 -10 37 -13
36 -5 -4 27 2 34 16 22 8 -7 14 -23 13 -36 -2 -17 -5 -20 -15 -12 -7 5 -19 8
-27 5 -7 -3 -19 0 -26 6 -10 9 -11 9 -5 -1 6 -11 3 -12 -14 -3 -17 9 -22 9
-27 -2 -4 -11 -34 -15 -54 -7 -3 1 -9 2 -15 0 -5 -1 -1 7 9 18 9 11 18 27 20
35 1 8 8 22 15 31 12 14 11 16 -4 9 -17 -6 -17 -5 1 19 10 15 23 25 27 25 5
-1 14 7 20 18 13 22 28 35 41 35 4 0 2 -10 -6 -22z m788 4 c-9 -9 15 -32 34
-32 10 0 23 -7 30 -15 7 -8 9 -15 6 -15 -14 0 -63 29 -75 44 -7 9 -17 13 -22
10 -5 -3 -9 -1 -9 4 0 15 11 21 26 15 8 -3 12 -8 10 -11z m-1666 -13 c0 -5 -6
-9 -13 -9 -8 0 -14 6 -14 14 0 8 6 12 14 9 7 -3 13 -9 13 -14z m910 -2 c0 -7
-6 -19 -12 -25 -14 -14 -18 -82 -5 -82 5 0 5 -5 1 -11 -4 -8 -12 -1 -22 17 -9
18 -11 29 -4 32 5 1 8 11 5 21 -5 21 13 61 27 61 6 0 10 -6 10 -13z m40 -16
c-6 -12 -15 -21 -21 -21 -5 0 -2 11 8 24 21 28 29 27 13 -3z m-225 -98 c-28
-7 -43 -23 -22 -23 10 0 17 -8 17 -20 0 -23 -12 -25 -42 -9 -15 8 -23 8 -32
-2 -8 -9 -8 -10 2 -5 8 5 12 0 12 -13 0 -12 -4 -21 -10 -21 -5 0 -10 5 -10 11
0 6 -7 4 -15 -5 -8 -8 -15 -22 -15 -30 0 -9 -5 -16 -11 -16 -6 0 -8 7 -5 16 4
10 0 15 -12 13 -35 -3 -36 2 -4 16 18 8 31 19 30 26 -2 6 6 16 17 22 11 7 31
20 44 30 13 9 35 16 50 16 21 -1 22 -2 6 -6z m431 -59 c-4 -9 -9 -15 -11 -12
-3 3 -3 13 1 22 4 9 9 15 11 12 3 -3 3 -13 -1 -22z m1922 9 c-21 -5 -23 -14
-7 -30 8 -8 7 -13 -2 -18 -13 -9 -42 22 -33 36 3 5 0 9 -7 9 -7 0 -9 -10 -6
-25 3 -16 0 -24 -7 -22 -17 6 -20 38 -4 48 7 5 29 8 48 8 19 -1 27 -3 18 -6z
m-2184 -10 c-5 -5 -12 -12 -16 -18 -4 -6 -8 -2 -8 8 0 9 7 17 17 17 9 0 12 -3
7 -7z m2261 -13 c-3 -5 -11 -10 -16 -10 -6 0 -7 5 -4 10 3 6 11 10 16 10 6 0
7 -4 4 -10z m125 1 c0 -5 13 -12 28 -16 65 -14 171 -113 230 -215 14 -25 32
-53 40 -63 8 -9 12 -20 9 -24 -7 -6 42 -53 56 -53 4 0 7 -7 7 -15 0 -8 5 -15
11 -15 6 0 9 -6 6 -14 -4 -9 3 -16 16 -20 12 -3 18 -8 14 -12 -4 -4 -2 -13 5
-21 10 -12 7 -13 -18 -8 l-29 6 25 -18 c75 -55 82 -65 76 -102 -14 -82 -23
-100 -47 -98 -15 1 -19 6 -14 22 3 11 8 33 12 49 6 26 4 28 -18 21 -33 -10
-33 -8 -30 -75 1 -33 -3 -69 -9 -80 -9 -16 -8 -20 5 -20 8 0 14 3 13 8 -3 16
25 60 38 58 18 -3 31 -16 16 -16 -7 0 -12 -8 -12 -18 0 -22 -22 -43 -67 -66
-40 -20 -54 -20 -47 -1 4 8 1 15 -5 15 -11 0 -9 -51 4 -102 5 -18 1 -37 -11
-57 -17 -30 -36 -41 -116 -74 -38 -16 -67 -57 -73 -105 -1 -15 -3 -31 -4 -35
0 -5 -6 -5 -13 -1 -7 5 -9 2 -5 -8 3 -9 -1 -24 -9 -35 -15 -17 -15 -17 -6 1
13 26 -29 66 -60 58 -17 -4 -20 -2 -15 12 5 12 3 16 -5 14 -7 -3 -14 -17 -16
-31 -2 -15 -8 -27 -14 -27 -5 0 -32 -20 -60 -45 -27 -24 -64 -49 -81 -54 -18
-5 -57 -20 -88 -34 -37 -17 -60 -22 -70 -16 -8 5 -45 8 -84 8 -38 -1 -74 0
-80 2 -5 1 -30 -7 -55 -19 -48 -23 -105 -29 -115 -12 -3 6 0 10 7 10 7 1 1 8
-14 16 -16 8 -28 19 -28 24 0 5 -10 11 -22 15 -13 3 -32 10 -43 15 -11 5 -31
11 -45 14 -14 3 -42 21 -64 39 -36 30 -38 35 -25 55 7 12 29 29 49 37 19 9 49
24 65 35 17 11 41 25 55 32 14 7 42 23 63 36 21 12 69 30 107 38 72 17 85 34
24 34 -19 0 -34 3 -34 6 0 21 26 45 59 55 33 10 47 8 97 -11 68 -25 111 -59
92 -72 -8 -5 -2 -8 17 -8 17 0 71 -17 120 -36 107 -42 185 -65 185 -55 0 4 23
13 51 19 69 16 94 43 67 70 -6 6 -13 22 -15 34 -5 31 -60 77 -135 113 -21 9
-38 24 -38 32 0 8 -4 12 -9 8 -5 -3 -17 2 -25 11 -9 8 -16 12 -16 7 0 -4 -7 2
-15 13 -8 12 -28 27 -45 34 -16 7 -30 18 -31 24 0 6 -2 28 -5 48 -2 20 0 39 6
43 6 3 8 10 5 15 -8 13 21 73 47 97 13 13 49 31 79 40 l54 18 -45 2 c-97 6
-110 11 -110 43 0 17 -5 30 -11 30 -6 0 -9 6 -6 13 19 46 19 47 2 47 -12 0
-15 5 -10 20 3 11 2 20 -3 20 -21 0 -5 58 27 98 18 24 32 44 30 45 -2 2 -16 8
-31 15 -21 9 -28 19 -28 39 0 24 6 30 43 42 23 7 56 15 74 17 17 2 42 8 55 13
30 13 38 13 38 2z m-2473 -7 c-3 -3 -12 -4 -19 -1 -8 3 -5 6 6 6 11 1 17 -2
13 -5z m373 -14 c-6 -11 -13 -20 -16 -20 -2 0 0 9 6 20 6 11 13 20 16 20 2 0
0 -9 -6 -20z m-700 -12 c0 -7 -5 -20 -11 -28 -9 -13 -10 -12 -5 2 3 12 1 15
-9 11 -8 -3 -13 -8 -11 -12 3 -4 -5 -8 -17 -8 -19 -2 -18 0 8 22 31 28 45 31
45 13z m60 8 c0 -2 -11 -11 -25 -20 -18 -12 -24 -13 -23 -4 4 16 48 38 48 24z
m40 -30 c0 -2 -9 -6 -20 -9 -11 -3 -20 -1 -20 4 0 5 9 9 20 9 11 0 20 -2 20
-4z m600 -7 c0 -3 -9 -9 -20 -12 -19 -5 -27 3 -15 15 8 7 35 6 35 -3z m-810
-14 c0 -2 -10 -9 -22 -15 -22 -11 -22 -10 -4 4 21 17 26 19 26 11z m-835 -16
c12 -19 -5 -23 -22 -6 -16 16 -16 17 -1 17 9 0 20 -5 23 -11z m985 1 c-19 -13
-30 -13 -30 0 0 6 10 10 23 10 18 0 19 -2 7 -10z m545 -9 c-2 -11 -8 -29 -14
-40 -6 -11 -11 -22 -11 -25 0 -10 39 -6 45 4 3 6 14 10 23 10 9 0 -4 -12 -30
-27 -27 -14 -47 -28 -45 -29 1 -1 18 1 37 6 19 4 31 9 25 10 -12 2 24 18 43
19 22 2 12 -17 -13 -23 -14 -4 -25 -11 -25 -17 0 -6 -4 -8 -9 -4 -5 3 -21 0
-35 -6 -23 -11 -29 -9 -51 13 l-25 25 20 26 c11 14 20 28 20 31 0 9 34 46 42
46 4 0 5 -9 3 -19z m95 -1 c0 -5 -2 -10 -4 -10 -3 0 -8 5 -11 10 -3 6 -1 10 4
10 6 0 11 -4 11 -10z m-1645 -30 c3 -5 -1 -10 -9 -10 -9 0 -16 5 -16 10 0 6 4
10 9 10 6 0 13 -4 16 -10z m1575 -10 c-19 -13 -30 -13 -30 0 0 6 10 10 23 10
18 0 19 -2 7 -10z m-1365 -10 c3 -5 -1 -10 -10 -10 -9 0 -13 5 -10 10 3 6 8
10 10 10 2 0 7 -4 10 -10z m499 -16 c3 -8 2 -12 -4 -9 -6 3 -10 10 -10 16 0
14 7 11 14 -7z m-594 -4 c5 8 12 11 17 7 9 -10 -16 -27 -39 -27 -10 0 -18 7
-18 16 0 14 3 14 16 3 13 -10 17 -10 24 1z m-50 -10 c0 -5 -7 -7 -15 -4 -8 4
-15 8 -15 10 0 2 7 4 15 4 8 0 15 -4 15 -10z m157 -6 c6 -15 8 -15 20 2 12 17
13 17 13 -3 0 -12 -8 -23 -20 -26 -11 -3 -18 -1 -14 4 3 5 1 9 -4 9 -6 0 -12
7 -16 15 -3 8 -1 15 5 15 5 0 12 -7 16 -16z m1249 -27 c8 -4 14 -17 14 -28 0
-15 -5 -19 -19 -14 -18 5 -36 -16 -24 -29 12 -12 22 -6 16 11 -4 10 -2 14 4
10 13 -8 23 -57 12 -57 -5 0 -9 5 -9 10 0 16 -22 12 -36 -7 -13 -16 -13 -15
-5 8 8 22 6 28 -12 38 -12 6 -16 10 -8 8 8 -2 24 6 34 16 18 18 19 21 4 32
-20 14 -22 32 -4 38 6 2 14 -3 16 -12 2 -9 9 -20 17 -24z m227 26 c-7 -2 -19
-2 -25 0 -7 3 -2 5 12 5 14 0 19 -2 13 -5z m-1003 -13 c11 -7 7 -10 -17 -10
-18 0 -33 5 -33 10 0 13 30 13 50 0z m120 3 l25 -7 -25 -6 c-34 -8 -76 0 -58
11 16 10 25 11 58 2z m540 -18 c-14 -17 -30 -20 -30 -6 0 5 8 12 18 14 9 3 19
5 21 6 2 0 -2 -6 -9 -14z m53 -10 c4 -8 2 -17 -3 -20 -6 -4 -10 -4 -10 -1 0 2
-3 11 -6 20 -3 9 -2 16 4 16 5 0 12 -7 15 -15z m-743 -5 c-13 -9 -13 -11 0
-20 11 -7 1 -9 -32 -7 -52 2 -67 17 -18 17 17 0 30 5 30 10 0 6 8 10 18 10 14
0 15 -2 2 -10z m137 -6 c-3 -3 -12 -4 -19 -1 -8 3 -5 6 6 6 11 1 17 -2 13 -5z
m443 -4 c0 -5 -4 -10 -10 -10 -5 0 -10 5 -10 10 0 6 5 10 10 10 6 0 10 -4 10
-10z m-438 -18 c4 -4 -15 -5 -42 -4 -30 3 -48 8 -44 14 6 10 73 2 86 -10z
m318 -34 c23 3 28 7 19 13 -11 7 37 6 61 -1 3 -1 -21 -8 -53 -16 -59 -14 -105
-6 -92 17 4 5 12 4 20 -4 8 -8 26 -12 45 -9z m-495 2 c3 -5 -1 -10 -10 -10 -9
0 -13 5 -10 10 3 6 8 10 10 10 2 0 7 -4 10 -10z m692 -15 c0 -8 -4 -15 -8 -15
-4 0 -9 7 -13 15 -3 9 0 15 8 15 7 0 13 -7 13 -15z m-640 -11 c-3 -3 -12 -4
-19 -1 -8 3 -5 6 6 6 11 1 17 -2 13 -5z m577 -5 c-7 -12 -74 -16 -74 -4 0 5
18 10 39 10 22 0 37 -3 35 -6z m-179 -9 c3 -5 1 -10 -4 -10 -6 0 -11 5 -11 10
0 6 2 10 4 10 3 0 8 -4 11 -10z m965 6 c0 -3 -4 -8 -10 -11 -5 -3 -10 -1 -10
4 0 6 5 11 10 11 6 0 10 -2 10 -4z m-373 -12 c-3 -3 -12 -4 -19 -1 -8 3 -5 6
6 6 11 1 17 -2 13 -5z m3 -20 c0 -2 -16 -4 -36 -4 -19 0 -33 4 -30 8 5 8 66 4
66 -4z m-150 -24 c0 -5 -5 -10 -11 -10 -5 0 -7 5 -4 10 3 6 8 10 11 10 2 0 4
-4 4 -10z m-1100 -24 c0 -2 -7 -9 -15 -16 -13 -11 -14 -10 -9 4 5 14 24 23 24
12z m1364 -22 c3 -8 2 -12 -4 -9 -6 3 -10 10 -10 16 0 14 7 11 14 -7z m-504
-9 c-7 -9 -15 -13 -19 -10 -3 3 1 10 9 15 21 14 24 12 10 -5z m547 9 c-3 -3
-12 -4 -19 -1 -8 3 -5 6 6 6 11 1 17 -2 13 -5z m8 -43 c3 -6 -3 -9 -14 -8 -11
0 -17 5 -15 9 7 11 22 10 29 -1z m-30 -41 c-3 -5 -14 -10 -23 -10 -15 0 -15 2
-2 10 20 13 33 13 25 0z m-898 -6 c-3 -3 -12 -4 -19 -1 -8 3 -5 6 6 6 11 1 17
-2 13 -5z m-682 -45 c5 -5 -5 -4 -23 2 -17 6 -32 13 -32 16 0 7 43 -8 55 -18z
m1088 14 c-7 -2 -19 -2 -25 0 -7 3 -2 5 12 5 14 0 19 -2 13 -5z m-2608 -53 c3
-5 -1 -10 -9 -10 -8 0 -18 5 -21 10 -3 6 1 10 9 10 8 0 18 -4 21 -10z m1590
-10 c23 -26 4 -26 -26 0 -18 15 -20 19 -8 20 9 0 24 -9 34 -20z m1260 -85
c-51 -16 -132 -30 -124 -21 7 7 126 35 149 34 8 0 -3 -6 -25 -13z m-3707 -125
c-13 -20 -28 -27 -28 -12 0 10 22 32 32 32 5 0 3 -9 -4 -20z m1942 11 c0 -6
-4 -13 -10 -16 -5 -3 -10 1 -10 9 0 9 5 16 10 16 6 0 10 -4 10 -9z m30 -11 c0
-5 -4 -10 -10 -10 -5 0 -10 5 -10 10 0 6 5 10 10 10 6 0 10 -4 10 -10z m-4
-210 c77 -23 109 -41 142 -78 29 -32 28 -38 -7 -53 -16 -7 -27 -17 -25 -21 10
-16 -84 -30 -166 -24 -210 14 -241 18 -229 32 8 10 3 16 -25 28 -20 8 -45 24
-57 34 -20 20 -20 21 -3 49 23 35 38 45 88 58 53 14 198 1 282 -25z m2644
-115 c96 -14 137 -33 150 -70 18 -49 -28 -88 -100 -86 -52 1 -70 -7 -70 -34 0
-26 -40 -45 -96 -45 -34 0 -46 14 -21 23 6 3 -6 6 -28 7 l-40 1 48 13 c62 17
67 24 17 24 -23 1 -47 5 -53 11 -16 12 -97 41 -119 41 -21 0 -38 48 -27 77 7
20 24 28 104 46 41 10 143 6 235 -8z m-1966 -51 c21 -8 46 -25 56 -37 17 -21
17 -22 -1 -35 -31 -21 -167 -31 -206 -15 -18 7 -38 10 -46 7 -8 -3 -36 4 -61
16 -41 18 -45 23 -36 40 11 20 19 23 95 38 54 11 152 4 199 -14z m-836 -41
c-10 -2 -28 -2 -40 0 -13 2 -5 4 17 4 22 1 32 -1 23 -4z m176 -5 c-3 -4 -38
-8 -77 -8 -40 0 -66 4 -59 8 16 11 142 11 136 0z m1475 -5 c0 -5 -20 -25 -43
-45 -42 -37 -43 -37 -97 -27 -30 5 -60 10 -66 11 -34 4 -6 27 55 46 67 21 153
29 151 15z m373 -44 c15 -6 28 -17 28 -25 0 -12 36 -72 60 -101 8 -10 2 -13
-29 -13 -22 0 -43 -5 -46 -10 -4 -7 -11 -7 -18 -2 -15 12 -83 26 -122 25 -16
0 -56 -8 -87 -16 -51 -15 -62 -15 -107 -1 -110 32 -107 100 4 103 28 0 64 7
80 15 67 32 190 45 237 25z m-2775 -105 c-3 -3 -12 -4 -19 -1 -8 3 -5 6 6 6
11 1 17 -2 13 -5z m3841 -44 c5 -13 3 -13 -11 -1 -15 12 -17 11 -17 -7 0 -41
-30 -34 -37 8 -1 11 7 15 29 15 19 0 33 -6 36 -15z m-993 -10 c-4 -7 3 -7 20
0 32 12 35 12 35 1 0 -5 -13 -14 -30 -20 -16 -5 -30 -8 -30 -5 0 3 -7 -2 -16
-10 -8 -9 -21 -16 -27 -16 -8 0 -7 4 2 9 11 7 10 10 -5 14 -13 3 -10 5 10 6
21 1 27 5 22 16 -3 9 0 15 10 15 8 0 12 -4 9 -10z m1359 -13 c-8 -28 -38 -70
-61 -87 -15 -12 -16 -12 -5 0 6 8 12 20 12 28 0 10 -4 10 -16 -3 -14 -13 -18
-14 -25 -3 -5 7 -4 14 1 16 6 2 8 8 5 13 -4 5 -29 -3 -58 -18 -29 -15 -63 -28
-77 -28 -14 -1 -29 -3 -35 -4 -66 -20 -117 74 -53 98 12 4 88 8 170 9 149 1
149 1 142 -21z m-4111 6 c-7 -2 -21 -2 -30 0 -10 3 -4 5 12 5 17 0 24 -2 18
-5z m2684 -49 c-3 -3 -12 -4 -19 -1 -8 3 -5 6 6 6 11 1 17 -2 13 -5z"/>
<path d="M5457 2868 c6 -11 31 -10 37 1 3 5 -5 8 -18 7 -13 0 -22 -4 -19 -8z"/>
<path d="M5401 2814 c-30 -27 -48 -35 -66 -31 -20 3 -23 1 -15 -8 6 -7 19 -12
28 -11 9 2 22 -4 29 -13 10 -14 14 -13 39 9 26 25 27 25 15 2 l-12 -23 28 18
c26 16 27 16 14 0 -9 -11 -10 -17 -2 -17 6 0 11 3 12 8 0 4 2 19 4 35 2 18 -1
27 -11 27 -8 0 -14 7 -14 15 0 9 6 12 18 9 14 -5 15 -4 2 5 -21 15 -22 15 -69
-25z m4 -34 c-3 -5 -10 -10 -16 -10 -5 0 -9 5 -9 10 0 6 7 10 16 10 8 0 12 -4
9 -10z"/>
<path d="M5491 2780 c0 -19 1 -40 0 -46 -1 -14 -41 -26 -41 -13 0 17 -25 4
-47 -25 -29 -37 -32 -99 -5 -89 15 6 15 3 -3 -18 -11 -13 -23 -27 -28 -30 -4
-3 -10 -16 -12 -29 -2 -13 -9 -28 -15 -34 -15 -15 -13 -39 3 -29 6 4 15 8 18
8 3 0 24 16 45 35 32 30 40 43 43 80 2 29 10 49 22 58 10 7 16 19 13 26 -3 8
3 16 15 19 21 5 20 -9 -6 -49 -17 -27 -15 -104 4 -104 7 0 13 9 13 21 0 11 -4
17 -10 14 -5 -3 -10 1 -10 9 0 9 6 16 14 16 18 0 31 93 16 119 -5 11 -10 30
-10 43 0 13 -5 30 -11 38 -7 11 -9 7 -8 -20z"/>
<path d="M5259 2763 c-13 -16 -12 -17 4 -4 9 7 17 15 17 17 0 8 -8 3 -21 -13z"/>
<path d="M5295 2725 c-22 -40 -19 -46 15 -32 20 8 22 11 8 14 -22 5 -23 17 -3
33 12 10 15 9 15 -6 0 -14 3 -15 12 -6 10 10 10 15 -2 22 -22 14 -25 13 -45
-25z"/>
<path d="M5265 2740 c-4 -6 -11 -8 -16 -4 -5 3 -9 2 -8 -3 1 -4 0 -10 -1 -13
-7 -13 -5 -60 2 -60 8 0 12 16 9 34 -1 4 5 19 14 32 8 13 13 24 11 24 -3 0 -8
-5 -11 -10z"/>
<path d="M5309 2669 c-12 -7 -12 -10 -1 -18 11 -7 10 -9 -3 -14 -9 -4 -13 -3
-10 3 3 6 1 10 -5 10 -7 0 -9 -7 -6 -16 3 -9 6 -17 6 -20 0 -2 7 -1 15 2 8 4
15 1 15 -5 0 -6 -3 -10 -7 -9 -5 1 -25 -9 -46 -22 -27 -16 -35 -25 -26 -31 7
-4 17 -5 21 -3 4 3 9 -3 9 -13 1 -10 2 -20 2 -23 1 -7 47 -50 47 -44 0 3 -8
18 -18 32 -22 32 -25 67 -9 80 9 8 12 1 12 -25 0 -20 6 -38 13 -40 7 -3 10 1
7 10 -4 8 4 21 19 31 23 15 39 45 17 32 -5 -3 -9 0 -8 7 2 70 -13 96 -44 76z"/>
<path d="M5234 2629 c-4 -7 -3 -9 4 -5 5 3 13 0 15 -6 4 -9 6 -10 6 -1 1 17
-16 25 -25 12z"/>
<path d="M5240 2525 c0 -3 7 -17 16 -30 9 -13 13 -29 9 -35 -3 -5 -1 -10 4
-10 13 0 15 33 4 44 -5 4 -8 13 -8 19 0 5 -6 12 -12 15 -7 2 -13 1 -13 -3z"/>
<path d="M5043 2457 c-16 -20 -23 -47 -12 -47 6 0 7 -6 3 -12 -5 -9 -2 -8 9 1
10 8 15 16 13 19 -3 2 -1 13 4 23 12 21 -3 35 -17 16z"/>
<path d="M5117 2463 c-4 -3 -7 -11 -7 -17 0 -6 5 -5 12 2 6 6 9 14 7 17 -3 3
-9 2 -12 -2z"/>
<path d="M4687 2433 c-4 -3 -7 -11 -7 -17 0 -6 5 -5 12 2 6 6 9 14 7 17 -3 3
-9 2 -12 -2z"/>
<path d="M5088 2411 c-9 -10 -12 -24 -9 -30 5 -7 12 -2 20 15 15 33 10 39 -11
15z"/>
<path d="M5520 2405 c10 -12 10 -15 -1 -15 -23 -1 39 -31 72 -35 17 -2 28 -1
25 2 -3 3 0 13 7 21 10 13 9 14 -10 4 -28 -15 -43 -15 -43 -1 0 15 -30 38 -49
39 -11 0 -11 -3 -1 -15z"/>
<path d="M5630 2410 c0 -6 5 -8 11 -4 6 3 16 0 21 -7 8 -12 9 -11 5 1 -4 18
-37 27 -37 10z"/>
<path d="M5795 2390 c-3 -5 -1 -10 4 -10 6 0 11 5 11 10 0 6 -2 10 -4 10 -3 0
-8 -4 -11 -10z"/>
<path d="M5519 2273 c-13 -16 -12 -17 4 -4 9 7 17 15 17 17 0 8 -8 3 -21 -13z"/>
<path d="M5581 2161 c-8 -6 -9 -11 -3 -15 6 -3 14 -1 17 5 9 14 2 20 -14 10z"/>
<path d="M5910 2115 c-10 -12 -7 -14 18 -12 19 1 28 6 25 15 -7 16 -28 15 -43
-3z"/>
<path d="M4373 2093 c-3 -10 -8 -22 -11 -27 -3 -5 0 -6 5 -3 11 7 25 47 17 47
-3 0 -7 -8 -11 -17z"/>
<path d="M4267 2077 c-3 -7 -2 -19 3 -26 5 -9 9 -8 14 5 4 9 3 21 -2 26 -6 6
-12 4 -15 -5z"/>
<path d="M5840 2061 c-7 -15 -7 -22 2 -27 7 -4 10 -3 5 1 -4 5 0 17 10 27 9
10 11 18 5 18 -6 0 -16 -9 -22 -19z"/>
<path d="M4285 2030 c-3 -5 -1 -10 4 -10 6 0 11 5 11 10 0 6 -2 10 -4 10 -3 0
-8 -4 -11 -10z"/>
<path d="M4985 2030 c3 -5 8 -10 11 -10 2 0 4 5 4 10 0 6 -5 10 -11 10 -5 0
-7 -4 -4 -10z"/>
<path d="M5805 2020 c-3 -5 -1 -10 4 -10 6 0 11 5 11 10 0 6 -2 10 -4 10 -3 0
-8 -4 -11 -10z"/>
<path d="M5396 1989 c4 -6 0 -15 -7 -20 -12 -7 -11 -9 1 -9 13 0 13 -1 0 -10
-13 -8 -13 -10 1 -10 9 0 24 10 35 22 10 12 13 18 7 14 -7 -4 -13 -3 -13 2 0
6 -7 13 -16 16 -9 4 -13 2 -8 -5z"/>
<path d="M5265 1962 c-4 -4 -21 -7 -38 -7 -44 0 -50 -19 -8 -23 35 -4 121 16
121 27 0 8 -67 11 -75 3z"/>
<path d="M5130 1950 c20 -13 33 -13 25 0 -3 6 -14 10 -23 10 -15 0 -15 -2 -2
-10z"/>
<path d="M5065 1913 c-26 -6 -44 -23 -24 -23 8 0 24 7 35 15 10 8 17 14 14 14
-3 -1 -14 -3 -25 -6z"/>
<path d="M4498 1883 c7 -3 16 -2 19 1 4 3 -2 6 -13 5 -11 0 -14 -3 -6 -6z"/>
<path d="M4980 1879 c0 -5 5 -7 10 -4 6 3 10 8 10 11 0 2 -4 4 -10 4 -5 0 -10
-5 -10 -11z"/>
<path d="M4565 1850 c-4 -6 5 -10 20 -10 15 0 24 4 20 10 -3 6 -12 10 -20 10
-8 0 -17 -4 -20 -10z"/>
<path d="M4494 1829 c-3 -6 -2 -15 4 -21 6 -6 11 -2 15 11 5 22 -7 29 -19 10z"/>
<path d="M4520 1787 c0 -2 19 -19 43 -37 23 -19 34 -25 25 -14 -10 12 -18 27
-18 34 0 7 -3 10 -6 7 -4 -3 -15 -2 -25 4 -11 5 -19 8 -19 6z"/>
<path d="M4678 1700 c12 -5 22 -14 22 -20 0 -5 8 -10 18 -10 14 0 12 4 -8 20
-14 11 -32 19 -40 19 -8 0 -5 -4 8 -9z"/>
<path d="M4556 1662 c-2 -4 4 -8 14 -8 10 0 16 4 14 8 -3 4 -9 8 -14 8 -5 0
-11 -4 -14 -8z"/>
<path d="M4720 1646 c0 -2 8 -10 18 -17 15 -13 16 -12 3 4 -13 16 -21 21 -21
13z"/>
<path d="M4810 1645 c0 -2 9 -9 20 -15 16 -9 18 -8 14 5 -5 13 -34 22 -34 10z"/>
<path d="M4769 1616 c10 -12 8 -16 -8 -21 -17 -5 -19 -9 -9 -25 11 -17 15 -18
33 -6 12 8 28 15 37 17 25 6 -3 39 -38 45 -23 4 -25 3 -15 -10z"/>
<path d="M4880 1621 c0 -5 5 -13 10 -16 6 -3 10 -2 10 4 0 5 -4 13 -10 16 -5
3 -10 2 -10 -4z"/>
<path d="M5665 1601 c-3 -5 -2 -12 3 -15 5 -3 9 1 9 9 0 17 -3 19 -12 6z"/>
<path d="M4915 1580 c3 -5 13 -10 21 -10 8 0 12 5 9 10 -3 6 -13 10 -21 10 -8
0 -12 -4 -9 -10z"/>
<path d="M5397 1564 c3 -8 14 -14 25 -14 10 0 29 -11 42 -25 23 -25 74 -36 60
-14 -4 7 0 9 12 5 11 -3 25 -2 33 3 15 10 4 15 -61 27 -21 3 -35 10 -32 15 3
5 -3 9 -13 10 -10 0 -30 2 -45 4 -20 3 -25 0 -21 -11z m110 -50 c-3 -3 -12 -4
-19 -1 -8 3 -5 6 6 6 11 1 17 -2 13 -5z"/>
<path d="M4840 1560 c-12 -8 -9 -10 13 -10 16 0 26 4 22 10 -8 12 -16 12 -35
0z"/>
<path d="M4964 1563 c9 -9 56 -13 56 -4 0 5 -14 9 -30 9 -17 -1 -29 -3 -26 -5z"/>
<path d="M4700 1550 c0 -5 5 -10 10 -10 6 0 10 5 10 10 0 6 -4 10 -10 10 -5 0
-10 -4 -10 -10z"/>
<path d="M4805 1550 c3 -5 8 -10 11 -10 2 0 4 5 4 10 0 6 -5 10 -11 10 -5 0
-7 -4 -4 -10z"/>
<path d="M5760 1335 c-7 -8 -8 -15 -2 -15 5 0 15 7 22 15 7 8 8 15 2 15 -5 0
-15 -7 -22 -15z"/>
<path d="M5876 1329 c3 -5 -2 -9 -11 -9 -9 0 -13 -4 -10 -10 7 -12 65 -14 65
-2 0 4 -11 12 -25 19 -14 6 -23 7 -19 2z"/>
<path d="M5677 1303 c-25 -25 27 -32 59 -8 18 13 17 14 -17 15 -20 0 -39 -3
-42 -7z"/>
<path d="M4967 1273 c9 -13 18 -21 21 -19 2 3 13 1 23 -5 14 -7 17 -6 13 4 -2
7 -20 20 -39 28 l-33 16 15 -24z"/>
<path d="M5750 1280 c-8 -5 -10 -10 -5 -10 6 0 17 5 25 10 8 5 11 10 5 10 -5
0 -17 -5 -25 -10z"/>
<path d="M5790 1260 c0 -6 7 -10 15 -10 8 0 15 2 15 4 0 2 -7 6 -15 10 -8 3
-15 1 -15 -4z"/>
<path d="M5725 1190 c-4 -6 3 -10 14 -10 25 0 27 6 6 13 -8 4 -17 2 -20 -3z"/>
<path d="M3327 1813 c18 -9 36 -13 40 -9 11 10 -18 26 -47 25 -24 0 -23 -1 7
-16z"/>
<path d="M3941 1139 c-19 -8 -21 -12 -11 -24 13 -15 51 -21 49 -7 -2 29 -15
39 -38 31z"/>
<path d="M3500 946 c36 -19 70 -35 77 -36 21 0 -32 49 -58 54 -13 2 -37 7 -54
11 -19 4 -7 -6 35 -29z"/>
<path d="M5975 1970 c-3 -5 1 -10 10 -10 9 0 13 5 10 10 -3 6 -8 10 -10 10 -2
0 -7 -4 -10 -10z"/>
</g>
</svg>
